# xmcd
#
# Track frame offsets:
#	150
#	21880
#	33900
#	45980
#	55915
#	66743
#	79095
#	92603
#	103045
#	117608
#	129728
#	140743
#	154095
#	165403
#	178690
#	190163
#	201045
#	211650
#	224578
#	239288
#	251858
#	262315
#	275355
#	289390
#	307473
#
# Disc length: 4274
#
# Revision: 2
# Processed by: cddbd v1.5.1PL0 Copyright (c) Steve Scherf et al.
# Submitted via: Grip 3.0.5
# Normalized: r1:DSETVAR1
#
DISCID=8a10b019
DTITLE=Various Artist - The Greatest Country Show on Earth (live) - cd3
DYEAR=1900
DGENRE=Country
TTITLE0=The Bellamy Brothers - If I said you had a beautiful body
TTITLE1=Connie Smith - Once a day
TTITLE2=Tex Williams - Smoke, smoke, smoke that cigarette
TTITLE3=Freddy Fender - Before the next teardrop falls
TTITLE4=Tom T. Hall - The year that Clayton Delaney died
TTITLE5=Earl Thomas Conley - Fire and smoke
TTITLE6=Razzy Bailey - What time do you have to be back in heaven
TTITLE7=T. G. Sheppard - Only one you
TTITLE8=George Jones - I always get lucky with you
TTITLE9=Mickey Gilley - Headache tomorrow, Heartache tonight
TTITLE10=Mel Tillis - I believe in you
TTITLE11=Tanya Tucker - San Antonio Stroll
TTITLE12=Faron Young - Wine me up
TTITLE13=Tammy Wynette - Stand by your man
TTITLE14=Helen Cornelius - Fools
TTITLE15=Mel McDaniel - Big ole brew
TTITLE16=Gene Watson - Farewell party
TTITLE17=Mark Gray - Please be love
TTITLE18=Johnny Rodriguez - How could i love her so much
TTITLE19=Moe Bandy - Rodeo Romeo
TTITLE20=Porter Wagoner - I thought i heard you calling my name
TTITLE21=Bobby Bare - Medley - 500 miles away from home - Four strong winds - Shame on me
TTITLE22=Ed Bruce - If it was easy
TTITLE23=The Osmond Brothers - If every man had a woman like you
TTITLE24=Johnny Tillotson - Let it be me
EXTD=
EXTT0=
EXTT1=
EXTT2=
EXTT3=
EXTT4=
EXTT5=
EXTT6=
EXTT7=
EXTT8=
EXTT9=
EXTT10=
EXTT11=
EXTT12=
EXTT13=
EXTT14=
EXTT15=
EXTT16=
EXTT17=
EXTT18=
EXTT19=
EXTT20=
EXTT21=
EXTT22=
EXTT23=
EXTT24=
PLAYORDER=
